Patient4_TMGait_0pt7_01_left_33_EMG.mot
version=1
nRows=33
nColumns=33
inDegrees=no
endheader
time	1LAddLong	2LGlutMax	3LGlutMed	4LIliopsoas	5LSemiMemb	6LBicFemLong	7LRecFem	8LVastMed	9LVastLat	10LGasMed	11LTibAnt	12lTibPost	13LPeroneusLong	14LSol	15LExtDigLong	16LFlexDigLong	17RAddLong	18RGlutMax	19RGlutMed	20RIliopsoas	21RSemiMemb	22RBicFemLong	23RRecFem	24RVastMed	25RVastLat	26RGasMed	27RTibAnt	28RTibPost	29RPeroneusLong	30RSol	31RExtDigLong	32RFlexDigLong
38.15	-0.005035	0.33875	-0.045166	0.020142	-0.014038	0.003357	-0.10147	0.005646	0.17105	0.028229	-0.16327	0.006714	0.046234	-0.002441	-0.040894	0.022278	-0.023804	0.29694	-0.14252	0.29327	-0.16846	0.030212	0.013275	0.036469	0.15076	-0.027466	0.14481	0.058289	-0.59097	-0.20279	0.003662	-0.006714
38.151	-0.007324	0.3006	-0.1178	0.008087	-0.018158	0.007324	-0.13473	0.005646	0.15839	0.017395	-0.059204	0.007629	0.026245	-0.022278	-0.026855	0.018616	-0.001373	0.39063	-0.043182	0.21744	0.35996	-0.014343	0.037537	0.034332	0.09552	-0.030518	0.14404	0.086517	-0.99182	-0.25024	0.006104	-0.023193
38.152	-0.00061	0.3038	-0.092621	0.000305	-0.022888	-0.010834	-0.18601	0.003815	0.18372	-0.016022	0.13916	0.00412	0.027313	-0.015411	-0.24277	0.032501	-0.010376	0.36468	0.008087	0.15137	0.20203	0.088806	0.086975	-0.016632	-0.020599	-0.029907	0.20279	-0.002747	-0.65765	-0.21149	0.007629	-0.014343
38.153	-0.007172	0.28748	-0.054321	-0.001068	-0.015564	-0.013733	-0.24124	0.012665	0.22049	-0.021515	0.14893	0.003204	0.048981	-0.037231	0.12878	0.015106	-0.024109	0.35095	0.007629	-0.038452	-0.29388	0.078735	0.10239	0.041656	-0.11704	0.019989	0.19959	0.004578	-0.16693	-0.29495	0.00946	-0.016327
38.154	-0.001373	0.24185	0.065918	-0.015564	-0.016785	-0.016327	-0.29572	0.007019	0.26611	-0.019531	0.066833	0.011597	0.053711	-0.0354	-0.14954	0.014038	-0.042419	0.39444	0.018768	-0.15976	-0.17273	0.12711	0.13672	0.11871	-0.16846	0.009003	0.2713	0.003052	0.5722	-0.46432	0.003967	-0.020752
38.155	0.006866	0.23987	0.0914	-0.02243	-0.008392	-0.023956	-0.31662	-0.000153	0.28946	-0.020294	0.020599	0.013885	0.030518	-0.004883	0.17639	0.023193	-0.057678	0.44235	0.025024	-0.15961	0.26749	0.35339	0.11734	0.12299	-0.18845	-0.075378	0.26886	-0.2681	0.65247	-1.01	0.004578	-0.027161
38.156	0.006561	0.2272	0.039215	-0.000916	-0.019684	-0.016174	-0.31479	-0.00351	0.31525	-0.032349	0.067749	0.010376	-0.036011	0.033417	-0.052948	0.024261	-0.048676	0.4187	-0.009918	-0.1091	0.36499	0.30045	0.057983	0.044861	-0.1622	-0.068207	0.33585	-0.52216	0.45563	-1.1626	0.008392	-0.025024
38.157	0.005035	0.19226	0.078278	0.013733	-0.007629	-0.027008	-0.33005	0.000916	0.34851	-0.043488	0.1387	-0.000153	-0.023193	0.025482	-0.047302	0.027008	-0.050049	0.38208	0.050507	0.024872	0.25955	0.10529	0.069427	0.007324	-0.12283	-0.021057	0.32349	0.15595	0.32074	-0.7872	0.00885	-0.027466
38.158	0.00824	0.18494	0.069275	0.037231	-0.012054	-0.020599	-0.28854	0.005035	0.33905	-0.053406	0.01709	0.015106	0.075836	-0.091858	-0.07782	0.028992	-0.036163	0.36133	0.112	0.078125	0.18112	0.02243	0.001526	-0.044861	-0.056305	0.027771	-0.068054	0.38345	0.12253	1.0249	0.005798	-0.009155
38.159	0.007629	0.18265	0.015106	0.027466	-0.009308	-0.004578	-0.25116	0.001373	0.31525	-0.000305	-0.05661	0.006561	0.15167	-0.1561	-0.17532	0.025787	-0.023651	0.31097	-0.000305	0.10529	0.11002	-0.080414	-0.040436	-0.063019	0.024719	0.005951	0.075073	0.16449	-0.12573	1.6261	0.004425	-0.001221
38.16	0.002747	0.1535	-0.002899	0.046692	-0.013275	-0.001373	-0.25146	0.001373	0.29511	0.033112	-0.051727	0.007629	0.11902	-0.1738	-0.17548	0.003815	0.011597	0.27786	0.029449	0.065765	0.082245	-0.18677	-0.10696	0.026398	0.13794	-0.028534	0.34119	0.11429	-0.5336	1.7702	0.003967	0.000458
38.161	0.016174	0.12222	-0.003967	0.061188	-0.009155	0.00885	-0.21652	-0.00061	0.24384	0.003662	-0.019836	0.008545	0.075989	-0.16998	-0.072327	0.02533	0.030212	0.22247	0.12375	-0.076599	-0.007019	-0.14587	-0.21576	-0.078278	0.16876	-0.015106	-0.005188	0.065918	-0.80383	1.5993	0.008087	-0.000916
38.162	0.01297	0.073242	-0.029297	0.011749	-0.009766	0.000153	-0.18997	0.006256	0.19516	-0.020294	-0.018921	0.007477	0.073242	-0.18829	0.063629	0.019073	0.023346	0.25665	0.13123	-0.11643	-0.003967	-0.077362	-0.16251	-0.049591	0.15717	0.032654	-0.085754	-0.007629	-0.45609	0.47226	0.001831	-0.00351
38.163	0.010223	0.078888	-0.045471	-0.001373	-0.021667	-0.012665	-0.13077	0.001526	0.15762	-0.020294	-0.028839	0.006409	0.057678	-0.091858	-0.008087	0.021057	-0.02182	0.28488	0.29495	-0.078735	0.063324	0.02533	-0.046234	-0.007935	0.1088	0.06073	-0.47775	-0.071106	0.30746	-0.4245	0.002747	0.010529
38.164	0.009918	0.081787	-0.078125	0.007477	-0.019073	-0.014648	-0.098572	0.007324	0.12833	-0.008392	0.039215	0.002136	0.055389	-0.079803	-0.044708	0.019684	-0.018158	0.26459	0.28122	0.019226	0.090485	0.034637	0.030365	-0.014648	0.062866	-0.023346	-0.79453	-0.050354	0.47287	-0.17548	0.001678	0.002594
38.165	0.012054	0.04425	-0.084076	0.01709	-0.016785	0.004578	-0.022583	0.002594	0.095978	-0.006104	0.065765	0.004425	0.023499	-0.016174	0.04715	0.018463	-0.016937	0.16617	-0.089874	0.08255	-0.098724	0.090637	0.043488	0.044098	0.057678	-0.062256	-0.69229	0.07019	0.23224	-0.1506	0.00412	-0.002899
38.166	0.015106	0.028381	-0.074158	0.016785	-0.012207	0.005493	0.012054	0.001526	0.077057	0.015411	0.032654	0.012054	-0.007477	0.011597	0.13336	0.014648	-0.025177	0.15595	0.042572	0.14084	-0.27893	0.08667	0.048676	0.00824	0.003815	-0.084839	-0.63294	-0.019836	-0.20065	-0.20905	0.001526	0.000916
38.167	0.018311	0.011139	-0.070496	-0.000153	-0.012817	0.011902	0.033722	0.001373	0.08255	-0.005493	0.026703	0.001984	0.006409	0.038147	0.19165	0.016479	0.005341	0.17059	0.14282	0.11185	-0.09613	0.055847	0.033722	-0.008087	0.00885	-0.088501	-0.42633	-0.25131	-0.2861	0.067596	0.004272	-0.000153
38.168	0.009613	0.015564	-0.020447	0.002441	-0.003357	0.011139	0.088196	0.00473	0.094757	-0.031128	-0.028839	0.007172	-0.028076	-0.038452	0.18249	0.019684	0.036774	0.12772	0.37872	-0.006104	-0.12558	0.159	0.09079	-0.065002	-0.007935	0.000916	-0.70633	-0.004272	0.00473	0.59189	0.004272	-0.002747
38.169	0.010529	0.012665	-0.016632	0.00946	-0.000458	-0.006104	0.1004	0.004578	0.063324	-0.041199	-0.12619	0.005951	-0.020599	-0.14572	0.18753	0.003204	-0.036163	0.068359	0.09079	-0.066986	-0.24872	0.23773	0.1236	0.018463	-0.018768	0.066528	-0.82169	0.15335	0.32425	0.63934	0.000458	-0.018005
38.17	0.00351	0.04715	-0.051117	0.011292	-0.007477	0.011292	0.10208	0.002289	0.02533	-0.053101	-0.045624	0.004425	0.009918	-0.15793	-0.058746	-0.024109	-0.028076	-0.04837	-0.062561	-0.033112	-0.2002	-0.071411	0.096741	-0.011444	-0.045319	0.11139	-0.46326	-0.17303	0.51605	1.4908	-0.001373	-0.00824
38.171	0.003204	0.006104	-0.034943	0.011749	-0.011597	0.010071	0.12787	0.002441	0.005951	-0.046387	-0.036774	0.008545	0.11795	-0.1033	-0.071869	-0.000916	0.003204	-0.16602	0.11353	0.012665	0.085602	-0.16983	0.098724	-0.006561	-0.050354	0.077667	-0.11841	-0.20371	0.45242	1.5704	0.005493	-0.005035
38.172	0.004578	0.002899	-0.034943	-0.018005	-0.028076	0.039825	0.10101	0.006104	-0.02533	-0.046387	-0.037994	0.006256	0.14648	-0.011902	-0.10101	-0.001373	0.01297	-0.11749	0.010834	0.023651	0.298	-0.14603	0.091248	-0.022125	-0.045166	0.070648	0.85907	-0.21378	0.045471	0.6311	0.000305	0.008698
38.173	0.001831	0.006256	-0.058289	-0.023499	-0.016174	0.02121	0.097809	0.009766	-0.039978	-0.015106	-0.005798	0.007172	0.11246	0.13062	-0.15472	-0.016327	-0.007019	-0.23651	0.093231	0.036926	-0.10239	-0.043945	0.075684	-0.034027	-0.054932	0.054626	1.0103	0.17929	-0.058289	-0.49439	0.002899	-0.005493
38.174	0.007935	-0.029907	-0.048523	0.006104	0.010986	0.021515	0.076447	0.001984	-0.029144	-0.028076	0.00824	0.006714	0.10483	0.22995	-0.15228	-0.000305	-0.035858	-0.18295	0.11322	0.010529	-0.35461	0.10529	0.050049	-0.023041	0.054474	0.032043	-0.23575	0.26886	-0.30807	-1.0477	-0.001373	-0.010376
38.175	0.000916	-0.036163	-0.065155	-0.00473	-0.02243	0.004425	0.099945	0.001526	-0.05188	-0.065613	0.027618	0.003662	0.084076	0.14465	-0.087891	-0.006866	-0.053558	-0.21454	0.18555	-0.014496	0.11749	0.18814	0.044403	0.035553	0.030365	0.009918	-0.28961	0.16205	-0.38956	-0.52307	-0.000305	-0.014801
38.176	0.008698	-0.027313	-0.079803	0.016174	-0.019989	-0.021362	0.078888	0.002136	-0.044403	-0.050812	0.024414	0.006409	0.062256	-0.13489	-0.035248	0.002441	-0.028687	-0.29282	0.55435	-0.029144	0.12543	0.31006	-0.037994	0.042419	0.080566	0.007935	0.75409	0.050354	0.008545	-0.2211	0.002136	-0.015564
38.177	0.00946	-0.039978	-0.057068	-0.002136	-0.006104	-0.027771	0.067444	0.002594	-0.041199	-0.0177	-0.007172	0.008087	0.031738	-0.3685	0	-0.008392	0.001831	-0.33157	0.70435	-0.019531	0.056152	0.10925	-0.11047	0.032806	0.13184	-0.023193	0.91187	0.003204	0.19806	-0.383	-0.000305	-0.01358
38.178	0.007935	-0.034637	-0.052185	-0.00885	0.001221	-0.039368	0.086975	0.002899	-0.028229	-0.012054	-0.015259	0.009003	0.04364	-0.3717	0.040436	-0.036621	-0.002136	-0.3862	0.34164	-0.00473	0.048065	-0.095215	0.082245	0.040741	0.079651	-0.056763	0.48996	-0.022888	-0.027008	-0.72327	0.001984	-0.022583
38.179	0.007172	-0.033875	-0.062866	0.002594	0.001373	-0.023651	0.076447	0.001526	-0.027008	-0.02121	-0.01358	0.013733	0.025177	-0.39124	0.059357	-0.014038	-0.004425	-0.34759	0.16785	-0.00351	0.070953	-0.053711	0.008392	-0.037537	-0.003662	0.008087	-0.13397	-0.029907	0.068359	-1.0022	-0.000458	-0.019226
38.18	0.007324	-0.039368	-0.084229	0.00412	-0.003357	-0.015106	0.074768	0.001221	-0.025787	-0.033264	-0.018616	0.008087	-0.009003	-0.31097	0.062561	-0.018311	-0.000153	-0.34531	0.15305	0.000763	-0.004425	-0.009613	-0.097656	-0.10056	0.052338	0.057068	-0.72296	-0.035095	0.19974	-0.86166	-0.000458	-0.013733
38.181	0.011902	-0.014648	-0.09964	0.007935	-0.00473	0.011139	0.038605	0.003052	0.002747	-0.023346	-0.016479	0.006714	-0.013733	-0.22797	0.058746	0.001831	-0.00351	-0.3447	0.033112	-0.053101	0.11139	-0.031738	0.031738	0.040741	0.07019	-0.021667	-0.84717	-0.037537	0.46127	-0.30167	0.000153	-0.006714
38.182	0.001526	-0.022736	-0.13489	0.008545	-0.038147	0.036469	0.051727	0.00412	-0.016937	-0.007019	0.049438	0.005341	-0.011597	-0.15243	0.032959	0.001831	0.011902	-0.32791	-0.0177	-0.078583	0.18204	-0.075073	0.080414	0.086212	0.049286	-0.048981	-0.50262	-0.010986	0.54688	0.46722	-0.00412	0.000458
